<?xml version="1.0" encoding="UTF-8" standalone="no"?>
<!-- Generator: Adobe Illustrator 22.0.1, SVG Export Plug-In . SVG Version: 6.00 Build 0)  -->

<svg
   version="1.1"
   id="Layer_1"
   x="0px"
   y="0px"
   viewBox="0 0 230 32"
   style="enable-background:new 0 0 230 32;"
   xml:space="preserve"
   sodipodi:docname="ds-logo-light.svg"
   inkscape:version="1.1.1 (3bf5ae0d25, 2021-09-20)"
   xmlns:inkscape="http://www.inkscape.org/namespaces/inkscape"
   xmlns:sodipodi="http://sodipodi.sourceforge.net/DTD/sodipodi-0.dtd"
   xmlns="http://www.w3.org/2000/svg"
   xmlns:svg="http://www.w3.org/2000/svg"><defs
   id="defs117" /><sodipodi:namedview
   id="namedview115"
   pagecolor="#ffffff"
   bordercolor="#666666"
   borderopacity="1.0"
   inkscape:pageshadow="2"
   inkscape:pageopacity="0.0"
   inkscape:pagecheckerboard="0"
   showgrid="false"
   inkscape:zoom="7.4173913"
   inkscape:cx="115"
   inkscape:cy="16.043376"
   inkscape:window-width="1875"
   inkscape:window-height="1135"
   inkscape:window-x="0"
   inkscape:window-y="0"
   inkscape:window-maximized="1"
   inkscape:current-layer="Layer_1" />
<style
   type="text/css"
   id="style80">
	.st0{fill:#F58A2E;}
	.st1{fill:#444545;}
	.st2{fill:#5C5AA6;}
	.st3{fill:#D1D2D3;}
	.st4{fill:#70C7B6;}
</style>
<path
   class="st0"
   d="M25.4,19.3V0.4h-4.7v10c-2.9-2.2-6.7-3-10.4-2l1.2,4.5c1.4-0.4,3-0.4,4.5,0.2c2.9,1.1,4.7,3.8,4.7,6.8v0  c0,0.8-0.1,1.6-0.4,2.5c-1.3,3.5-5,5.4-8.5,4.5l-1.6,4.3c2.2,0.7,4.3,0.7,6.6,0C22.2,29.6,25.6,24.6,25.4,19.3z"
   id="path82" />
<g
   id="g106"
   style="fill:#ffffff">
	<path
   class="st1"
   d="M44.3,11h-7.5V8.9h17.2V11h-7.5v19h-2.3V11z"
   id="path84"
   style="fill:#ffffff" />
	<path
   class="st1"
   d="M68.9,15.6c1,1.1,1.6,2.8,1.6,5.1v9.4h-2.3v-9.4c0-1.5-0.3-2.6-1-3.4c-0.7-0.8-1.7-1.2-3-1.2   c-1.5,0-3,0.4-4.5,1.3v12.8h-2.3V7.2h2.3v8.1c0.8-0.4,1.6-0.8,2.4-1c0.8-0.2,1.6-0.3,2.4-0.3C66.3,13.9,67.8,14.5,68.9,15.6z"
   id="path86"
   style="fill:#ffffff" />
	<path
   class="st1"
   d="M87,16.3c1.1,1.6,1.7,3.7,1.6,6.3H77c0,1.9,0.4,3.4,1.3,4.4c0.9,1,2.2,1.5,3.8,1.5c2.1,0,3.9-0.5,5.4-1.4v2.4   c-1.5,0.7-3.4,1.1-5.6,1.1c-2.3,0-4.1-0.7-5.4-2.1c-1.3-1.4-1.9-3.5-1.9-6.3c0-2.7,0.6-4.7,1.8-6.1c1.2-1.4,2.9-2.1,5.1-2.1   C84.1,13.9,85.8,14.7,87,16.3z M78.5,17c-0.7,0.6-1.2,1.8-1.4,3.4h9.1c-0.1-1.5-0.5-2.6-1.3-3.3c-0.7-0.7-1.8-1.1-3.3-1.1   C80.3,16,79.2,16.4,78.5,17z"
   id="path88"
   style="fill:#ffffff" />
	<path
   class="st1"
   d="M93,8.9h6.6c3.3,0,5.8,0.9,7.4,2.7c1.7,1.8,2.5,4.4,2.5,7.9c0,7.1-3.3,10.6-9.9,10.6H93V8.9z M99.5,27.9   c2.7,0,4.7-0.7,5.9-2c1.2-1.4,1.9-3.5,1.9-6.4c0-2.9-0.6-5.1-1.9-6.4c-1.2-1.4-3.2-2-5.9-2h-4.2v16.9H99.5z"
   id="path90"
   style="fill:#ffffff" />
	<path
   class="st1"
   d="M125,15.2c1,0.9,1.5,2.1,1.5,3.8v7.7c0,1.5-0.6,2.5-1.9,3.1c-1.2,0.5-3,0.8-5.2,0.8c-1.7,0-3.1-0.4-4.3-1.1   c-1.2-0.7-1.8-2-1.8-3.7c0-1.9,0.5-3.3,1.6-4.1c1-0.9,2.5-1.3,4.3-1.3c2.1,0,3.7,0.4,5,1.1v-1.9c0-2.4-1.4-3.6-4.2-3.6   c-0.9,0-1.8,0.1-2.8,0.4c-0.9,0.3-1.7,0.6-2.4,1.1v-2.3c0.6-0.4,1.5-0.7,2.6-1c1.1-0.2,2.2-0.3,3.3-0.3   C122.6,13.9,124,14.4,125,15.2z M123.3,28.2c0.7-0.2,1-0.7,1-1.4v-3.6c-0.6-0.3-1.2-0.5-2-0.7c-0.8-0.2-1.6-0.2-2.4-0.2   c-1.3,0-2.4,0.3-3.1,0.8c-0.7,0.5-1.1,1.2-1.1,2.2c0,1.1,0.4,1.9,1.3,2.4c0.8,0.5,1.9,0.7,3.1,0.7   C121.5,28.5,122.6,28.4,123.3,28.2z"
   id="path92"
   style="fill:#ffffff" />
	<path
   class="st1"
   d="M133.8,29.3c-0.7-0.7-1.1-1.7-1.1-3v-9.9h-2.8v-2.1h2.8V9.7h2.3v4.5h4.1v2.1H135v9.2c0,0.9,0.1,1.6,0.4,2   c0.3,0.4,0.8,0.6,1.7,0.6c0.8,0,1.5-0.1,2-0.4v2.2c-0.3,0.1-0.7,0.2-1.1,0.3c-0.5,0.1-0.9,0.1-1.3,0.1   C135.5,30.3,134.5,30,133.8,29.3z"
   id="path94"
   style="fill:#ffffff" />
	<path
   class="st1"
   d="M154.2,15.2c1,0.9,1.5,2.1,1.5,3.8v7.7c0,1.5-0.6,2.5-1.9,3.1c-1.2,0.5-3,0.8-5.2,0.8c-1.7,0-3.1-0.4-4.3-1.1   c-1.2-0.7-1.8-2-1.8-3.7c0-1.9,0.5-3.3,1.6-4.1c1-0.9,2.5-1.3,4.3-1.3c2.1,0,3.7,0.4,5,1.1v-1.9c0-2.4-1.4-3.6-4.2-3.6   c-0.9,0-1.8,0.1-2.8,0.4c-0.9,0.3-1.7,0.6-2.4,1.1v-2.3c0.6-0.4,1.5-0.7,2.6-1c1.1-0.2,2.2-0.3,3.3-0.3   C151.7,13.9,153.1,14.4,154.2,15.2z M152.4,28.2c0.7-0.2,1-0.7,1-1.4v-3.6c-0.6-0.3-1.2-0.5-2-0.7c-0.8-0.2-1.6-0.2-2.4-0.2   c-1.3,0-2.4,0.3-3.1,0.8c-0.7,0.5-1.1,1.2-1.1,2.2c0,1.1,0.4,1.9,1.3,2.4c0.8,0.5,1.9,0.7,3.1,0.7   C150.7,28.5,151.7,28.4,152.4,28.2z"
   id="path96"
   style="fill:#ffffff" />
	<path
   class="st1"
   d="M163.5,30c-0.9-0.3-1.9-0.7-3.1-1.4v-2.5c0.8,0.6,1.7,1.2,2.9,1.6c1.2,0.4,2.4,0.6,3.9,0.6   c1.5,0,2.7-0.3,3.5-1c0.8-0.7,1.1-1.5,1.1-2.7c0-0.8-0.2-1.5-0.7-2c-0.4-0.5-1-1-1.6-1.3c-0.6-0.3-1.5-0.7-2.8-1.2   c-1.3-0.4-2.4-0.9-3.1-1.3c-0.8-0.4-1.4-1-2-1.8c-0.6-0.8-0.8-1.8-0.8-3.1c0-0.9,0.2-1.7,0.7-2.5c0.4-0.8,1.1-1.5,2.1-2.1   c1-0.6,2.2-0.8,3.7-0.8c1.1,0,2,0.1,2.7,0.3c0.7,0.2,1.6,0.6,2.8,1.2v2.4c-0.1-0.1-0.5-0.3-1.2-0.7c-0.6-0.4-1.3-0.6-2-0.8   c-0.7-0.2-1.4-0.3-2.2-0.3c-1.5,0-2.5,0.3-3.2,0.9c-0.7,0.6-1,1.4-1,2.3c0,0.8,0.2,1.5,0.6,2c0.4,0.5,0.9,0.9,1.5,1.2   c0.6,0.3,1.5,0.7,2.7,1c1.3,0.4,2.4,0.9,3.2,1.3c0.8,0.4,1.6,1.1,2.1,1.9c0.6,0.8,0.9,1.8,0.9,3.1c0,1.7-0.6,3.1-1.7,4.3   c-1.1,1.2-2.9,1.7-5.4,1.7C165.5,30.4,164.3,30.3,163.5,30z"
   id="path98"
   style="fill:#ffffff" />
	<path
   class="st1"
   d="M190,15.6c1,1.1,1.6,2.8,1.6,5.1v9.4h-2.3v-9.4c0-1.5-0.3-2.6-1-3.4c-0.7-0.8-1.7-1.2-3-1.2   c-1.5,0-3,0.4-4.5,1.3v12.8h-2.3V7.2h2.3v8.1c0.8-0.4,1.6-0.8,2.4-1c0.8-0.2,1.6-0.3,2.4-0.3C187.5,13.9,189,14.5,190,15.6z"
   id="path100"
   style="fill:#ffffff" />
	<path
   class="st1"
   d="M208.2,16.3c1.1,1.6,1.7,3.7,1.6,6.3h-11.6c0,1.9,0.4,3.4,1.3,4.4c0.9,1,2.2,1.5,3.8,1.5   c2.1,0,3.9-0.5,5.4-1.4v2.4c-1.5,0.7-3.4,1.1-5.6,1.1c-2.3,0-4.1-0.7-5.4-2.1c-1.3-1.4-1.9-3.5-1.9-6.3c0-2.7,0.6-4.7,1.8-6.1   c1.2-1.4,2.9-2.1,5.1-2.1C205.3,13.9,207,14.7,208.2,16.3z M199.7,17c-0.7,0.6-1.2,1.8-1.4,3.4h9.1c-0.1-1.5-0.5-2.6-1.3-3.3   c-0.7-0.7-1.8-1.1-3.3-1.1C201.5,16,200.4,16.4,199.7,17z"
   id="path102"
   style="fill:#ffffff" />
	<path
   class="st1"
   d="M227.1,7.5v19.8c0,1.1-0.7,1.9-2,2.4c-1.4,0.5-2.9,0.8-4.5,0.8c-1.9,0-3.6-0.6-5.1-1.9   c-1.4-1.3-2.2-3.5-2.2-6.7c0-2.5,0.6-4.5,1.8-5.9c1.2-1.4,3-2.1,5.4-2.1c0.6,0,1.2,0.1,2,0.3c0.8,0.2,1.6,0.4,2.2,0.7V7.5H227.1z    M224.8,17.2c-0.6-0.4-1.3-0.6-2.1-0.8c-0.8-0.2-1.5-0.3-2.2-0.3c-1.7,0-2.9,0.5-3.7,1.6c-0.8,1-1.2,2.5-1.2,4.3   c0,2,0.4,3.6,1.1,4.7c0.7,1.2,2,1.8,3.9,1.8c1.1,0,2.1-0.1,2.9-0.4c0.8-0.3,1.2-0.6,1.2-1V17.2z"
   id="path104"
   style="fill:#ffffff" />
</g>
<path
   class="st2"
   d="M11.1,26.6c-3.5-1.3-5.4-5-4.5-8.5l-4.2-1.7l-0.1,0c-1.8,5.9,1.4,12.3,7.3,14.5L11.1,26.6  C11.1,26.6,11.1,26.6,11.1,26.6z"
   id="path108" />
<path
   class="st3"
   d="M3.9,13c-0.6,0.8-1,1.7-1.4,2.7l4.3,1.7c0.2-0.4,0.5-1.1,0.8-1.5L3.9,13z"
   id="path110" />
<path
   class="st4"
   d="M9.6,8.6c-2.2,0.7-3.9,2-5.3,3.8L8,15.3c0.8-1,1.8-1.7,2.9-2.1L9.6,8.6z"
   id="path112" />
</svg>
