<svg xmlns="http://www.w3.org/2000/svg" width="221.90999999999997" height="35" viewBox="0 0 221.90999999999997 35"><rect class="svg__rect" x="0" y="0" width="95.99" height="35" fill="#FF8C27"/><rect class="svg__rect" x="93.99" y="0" width="127.91999999999999" height="35" fill="#4F4A8D"/><path class="svg__text" d="M15.69 22L14.22 22L14.22 13.47L16.14 13.47L18.60 20.01L21.06 13.47L22.97 13.47L22.97 22L21.49 22L21.49 19.19L21.64 15.43L19.12 22L18.06 22L15.55 15.43L15.69 19.19L15.69 22ZM28.49 22L26.95 22L30.17 13.47L31.50 13.47L34.73 22L33.18 22L32.49 20.01L29.18 20.01L28.49 22ZM30.83 15.28L29.60 18.82L32.07 18.82L30.83 15.28ZM41.14 22L38.69 22L38.69 13.47L41.21 13.47Q42.34 13.47 43.21 13.97Q44.09 14.48 44.57 15.40Q45.05 16.33 45.05 17.52L45.05 17.52L45.05 17.95Q45.05 19.16 44.57 20.08Q44.08 21.00 43.19 21.50Q42.30 22 41.14 22L41.14 22ZM40.17 14.66L40.17 20.82L41.14 20.82Q42.30 20.82 42.93 20.09Q43.55 19.36 43.56 17.99L43.56 17.99L43.56 17.52Q43.56 16.13 42.96 15.40Q42.35 14.66 41.21 14.66L41.21 14.66L40.17 14.66ZM55.09 22L49.51 22L49.51 13.47L55.05 13.47L55.05 14.66L51.00 14.66L51.00 17.02L54.50 17.02L54.50 18.19L51.00 18.19L51.00 20.82L55.09 20.82L55.09 22ZM68.38 22L65.26 22L65.26 13.47L68.19 13.47Q69.64 13.47 70.39 14.05Q71.15 14.63 71.15 15.78L71.15 15.78Q71.15 16.36 70.83 16.83Q70.51 17.30 69.90 17.56L69.90 17.56Q70.60 17.75 70.97 18.26Q71.35 18.78 71.35 19.51L71.35 19.51Q71.35 20.71 70.58 21.36Q69.81 22 68.38 22L68.38 22ZM66.75 18.15L66.75 20.82L68.39 20.82Q69.09 20.82 69.48 20.47Q69.88 20.13 69.88 19.51L69.88 19.51Q69.88 18.18 68.52 18.15L68.52 18.15L66.75 18.15ZM66.75 14.66L66.75 17.06L68.20 17.06Q68.89 17.06 69.28 16.75Q69.67 16.43 69.67 15.86L69.67 15.86Q69.67 15.23 69.31 14.95Q68.95 14.66 68.19 14.66L68.19 14.66L66.75 14.66ZM77.86 18.86L75.00 13.47L76.64 13.47L78.61 17.51L80.57 13.47L82.21 13.47L79.35 18.86L79.35 22L77.86 22L77.86 18.86Z" fill="#FFFFFF"/><path class="svg__text" d="M112.15 22L108.18 22L108.18 13.60L112.15 13.60Q113.53 13.60 114.60 14.12Q115.67 14.63 116.26 15.58Q116.84 16.53 116.84 17.80L116.84 17.80Q116.84 19.07 116.26 20.02Q115.67 20.97 114.60 21.48Q113.53 22 112.15 22L112.15 22ZM110.56 15.50L110.56 20.10L112.06 20.10Q113.13 20.10 113.79 19.49Q114.44 18.88 114.44 17.80L114.44 17.80Q114.44 16.72 113.79 16.11Q113.13 15.50 112.06 15.50L112.06 15.50L110.56 15.50ZM122.99 22L120.56 22L124.27 13.60L126.62 13.60L130.33 22L127.87 22L127.20 20.37L123.65 20.37L122.99 22ZM125.43 15.93L124.34 18.61L126.51 18.61L125.43 15.93ZM136.28 15.48L133.70 15.48L133.70 13.60L141.22 13.60L141.22 15.48L138.65 15.48L138.65 22L136.28 22L136.28 15.48ZM147.01 22L144.58 22L148.29 13.60L150.63 13.60L154.35 22L151.88 22L151.22 20.37L147.67 20.37L147.01 22ZM149.45 15.93L148.36 18.61L150.52 18.61L149.45 15.93ZM164.89 21.24L164.89 21.24L165.67 19.49Q166.23 19.86 166.98 20.09Q167.72 20.32 168.44 20.32L168.44 20.32Q169.81 20.32 169.81 19.64L169.81 19.64Q169.81 19.28 169.42 19.11Q169.03 18.93 168.17 18.74L168.17 18.74Q167.22 18.53 166.58 18.30Q165.95 18.06 165.49 17.55Q165.04 17.03 165.04 16.16L165.04 16.16Q165.04 15.39 165.46 14.77Q165.88 14.15 166.71 13.79Q167.55 13.43 168.75 13.43L168.75 13.43Q169.58 13.43 170.38 13.62Q171.19 13.80 171.80 14.17L171.80 14.17L171.07 15.93Q169.87 15.28 168.74 15.28L168.74 15.28Q168.03 15.28 167.71 15.49Q167.39 15.70 167.39 16.04L167.39 16.04Q167.39 16.37 167.77 16.54Q168.15 16.71 169.00 16.89L169.00 16.89Q169.97 17.10 170.59 17.33Q171.22 17.56 171.69 18.07Q172.15 18.58 172.15 19.46L172.15 19.46Q172.15 20.21 171.73 20.83Q171.31 21.44 170.47 21.80Q169.63 22.17 168.43 22.17L168.43 22.17Q167.41 22.17 166.45 21.92Q165.49 21.67 164.89 21.24ZM179.11 22L176.73 22L176.73 13.60L179.11 13.60L179.11 16.76L182.35 16.76L182.35 13.60L184.72 13.60L184.72 22L182.35 22L182.35 18.72L179.11 18.72L179.11 22ZM196.63 22L189.88 22L189.88 13.60L196.47 13.60L196.47 15.44L192.24 15.44L192.24 16.85L195.97 16.85L195.97 18.63L192.24 18.63L192.24 20.17L196.63 20.17L196.63 22ZM205.40 22L201.43 22L201.43 13.60L205.40 13.60Q206.79 13.60 207.85 14.12Q208.92 14.63 209.51 15.58Q210.10 16.53 210.10 17.80L210.10 17.80Q210.10 19.07 209.51 20.02Q208.92 20.97 207.85 21.48Q206.79 22 205.40 22L205.40 22ZM203.81 15.50L203.81 20.10L205.31 20.10Q206.39 20.10 207.04 19.49Q207.69 18.88 207.69 17.80L207.69 17.80Q207.69 16.72 207.04 16.11Q206.39 15.50 205.31 15.50L205.31 15.50L203.81 15.50Z" fill="#5CDCC1" x="106.99"/></svg>